<svg width="14" height="14" viewBox="0 0 14 14" fill="none" xmlns="http://www.w3.org/2000/svg">
<path d="M11.0996 0C11.6566 8.0267e-08 12.1911 0.220432 12.585 0.614258C12.9788 1.00808 13.1992 1.54265 13.1992 2.09961V11.0996C13.1992 11.6566 12.9788 12.1911 12.585 12.585C12.1911 12.9788 11.6566 13.1992 11.0996 13.1992H2.09961C1.54265 13.1992 1.00808 12.9788 0.614258 12.585C0.220432 12.1911 2.41943e-07 11.6566 0 11.0996V2.09961C2.69726e-07 1.54266 0.220433 1.00808 0.614258 0.614258C1.00808 0.220433 1.54266 2.41944e-07 2.09961 0H11.0996ZM2.09961 1.19922C1.86092 1.19922 1.63167 1.29411 1.46289 1.46289C1.29411 1.63167 1.19922 1.86092 1.19922 2.09961V11.0996C1.19922 11.3383 1.29411 11.5675 1.46289 11.7363C1.63167 11.9051 1.86091 12 2.09961 12H3.75V1.19922H2.09961ZM4.94922 12H11.0996C11.3383 12 11.5675 11.9051 11.7363 11.7363C11.9051 11.5675 12 11.3383 12 11.0996V2.09961C12 1.86091 11.9051 1.63167 11.7363 1.46289C11.5675 1.29411 11.3383 1.19922 11.0996 1.19922H4.94922V12ZM8.42578 4.67578C8.6601 4.44147 9.03912 4.44147 9.27344 4.67578C9.50775 4.9101 9.50775 5.28912 9.27344 5.52344L8.19727 6.59961L9.27344 7.67578C9.50775 7.9101 9.50775 8.28912 9.27344 8.52344C9.03912 8.75775 8.6601 8.75775 8.42578 8.52344L6.92578 7.02344C6.81326 6.91092 6.75 6.75874 6.75 6.59961C6.75 6.44048 6.81326 6.2883 6.92578 6.17578L8.42578 4.67578Z" fill="white" fill-opacity="0.5"/>
</svg>
